<?xml version="1.0" encoding="utf-8"?>
<!-- Generator: Adobe Illustrator 16.0.0, SVG Export Plug-In . SVG Version: 6.00 Build 0)  -->
<!DOCTYPE svg PUBLIC "-//W3C//DTD SVG 1.1//EN" "http://www.w3.org/Graphics/SVG/1.1/DTD/svg11.dtd">
<svg version="1.1" id="Layer_1" xmlns="http://www.w3.org/2000/svg" xmlns:xlink="http://www.w3.org/1999/xlink" x="0px" y="0px"
	 width="100px" height="100px" viewBox="0 0 100 100" enable-background="new 0 0 100 100" xml:space="preserve">
<g>
	<radialGradient id="SVGID_1_" cx="43.9351" cy="34.5947" r="35.0674" gradientUnits="userSpaceOnUse">
		<stop  offset="0" style="stop-color:#44C7F4"/>
		<stop  offset="0.1775" style="stop-color:#22BAF1"/>
		<stop  offset="0.3758" style="stop-color:#00ADEE"/>
		<stop  offset="0.4645" style="stop-color:#00A6E6"/>
		<stop  offset="0.6041" style="stop-color:#0092CF"/>
		<stop  offset="0.7772" style="stop-color:#0072AA"/>
		<stop  offset="0.9754" style="stop-color:#004678"/>
		<stop  offset="1" style="stop-color:#004071"/>
	</radialGradient>
	<path fill="url(#SVGID_1_)" d="M13.286,26.125c6.673-9.456,17.27-15.948,28.703-17.695c9.79-1.399,20.067,0.494,28.55,5.663
		c12.254,7.222,20.585,20.889,20.896,35.171c-0.221,6.142,3.366,11.516,3.876,17.566c0.488,4.903-0.38,9.791-1.679,14.505
		c0-3.451-0.106-6.955-1.172-10.277c-2.059-6.537-6.026-12.779-11.789-16.625c-4.188,0.235-8.231,2.759-12.459,1.802
		c-4.75-1.832-8.718-5.146-12.815-8.081c1.323-1.618,2.881-3.024,4.713-4.028c7.511-4.355,15.218-8.361,23.077-12.033
		c-0.995-0.661-1.694-2.212-3.07-1.969c-4.203,0.791-10.133,2.964-14.245,4.074c-0.942-0.593-1.308-2.211-2.401-2.166
		c-1.498,0.068,0.205,2.661-1.239,3.23c-2.85,1.087-5.838,1.763-8.779,2.584c-1.506-0.912-3.854-4.082-4.85-1.984
		c-0.509,1.087,0.578,2.311,0.973,3.443c-3.162,0.685-6.689,2.691-9.76,0.677c-7.008-3.52-20.105-11.782-21.876-9
		c-1.201,1.559,0.099,3.375,1.566,4.333c5.381,4.447,11.455,7.989,17.285,11.82c0.471,2.896,1.232,7.039,1.643,9.958
		c-0.98-0.304-5.732-1.84-5.838-0.813c-0.167,1.543,4.18,2.31,5.99,2.994c0.349,2.212,0.707,4.432,1.087,6.644
		c-0.912,0-4.067,0.493-3.961,1.414c0.183,1.664,2.562,0.942,4.257,1.384c0.327,1.861,0.616,3.723,0.935,5.602
		c0.661,0.326,1.992,0.995,2.653,1.322c1.254-6.149,1.497-12.557,3.633-18.509c0.471-1.566,1.786-3.663,3.717-2.691
		c5.131,2.273,9.608,6.249,15.477,6.576c0.053,2.196,0.105,4.394,0.167,6.597c5.854,4.523,12.573,11.09,11.037,19.193
		c-2.242,6.347-9.919,7.563-15.772,8.051c4.667-0.98,9.531-3.095,11.189-7.959c-4.074,2.25-8.187,4.561-12.695,5.792
		c-6.81,1.855-16.32,2.167-23.761,0.03C23.95,89.095,13.217,79.486,8.398,67.248C2.887,53.887,4.802,37.816,13.286,26.125z"/>
</g>
</svg>
